# xmcd CD database file
#
# Track frame offsets:
#	150
#	19543
#	35982
#
# Disc length: 675 seconds
#
# Revision: 0
# Processed by: cddbd v1.4PL0 Copyright (c) Steve Scherf et al.
# Submitted via: CDex 1.50
#
DISCID=1e02a103
DTITLE=Lemuel Sheppard - Concert Excerpts
DYEAR=2001
DGENRE=Blues
TTITLE0=Follow the Drinking Gourd
TTITLE1=Alabama Bound
TTITLE2=John Hardy
EXTD=YEAR: 2001
EXTT0=
EXTT1=
EXTT2=
PLAYORDER=
